<?xml version="1.0" encoding="UTF-8"?>
<svg version="1.1" xmlns="http://www.w3.org/2000/svg" width="64" height="64">
<path d="M0 0 C0 0.66 0 1.32 0 2 C1.32 2 2.64 2 4 2 C4 1.34 4 0.68 4 0 C8.95 0 13.9 0 19 0 C19 0.66 19 1.32 19 2 C19.99 2 20.98 2 22 2 C22 1.34 22 0.68 22 0 C26.95 0 31.9 0 37 0 C37 0.66 37 1.32 37 2 C37.99 2 38.98 2 40 2 C40 1.34 40 0.68 40 0 C44.12769407 -0.49139215 45.7529716 -0.15847105 49.3125 2.125 C52.23756256 5.25413669 52.80442984 6.79524165 53 11 C52.34 11 51.68 11 51 11 C51 12.32 51 13.64 51 15 C51.66 15 52.32 15 53 15 C53 19.95 53 24.9 53 30 C52.34 30 51.68 30 51 30 C51 30.99 51 31.98 51 33 C51.66 33 52.32 33 53 33 C53 37.95 53 42.9 53 48 C52.34 48 51.68 48 51 48 C51 49.32 51 50.64 51 52 C51.66 52 52.32 52 53 52 C52.76291095 58.04577083 52.76291095 58.04577083 50.73828125 60.578125 C47.60054577 63.32858331 46.25119369 64 42 64 C42 63.34 42 62.68 42 62 C40.68 62 39.36 62 38 62 C38 62.66 38 63.32 38 64 C33.05 64 28.1 64 23 64 C23 63.34 23 62.68 23 62 C22.01 62 21.02 62 20 62 C20 62.66 20 63.32 20 64 C15.05 64 10.1 64 5 64 C5 63.34 5 62.68 5 62 C3.68 62 2.36 62 1 62 C1 62.66 1 63.32 1 64 C-5.04577083 63.76291095 -5.04577083 63.76291095 -7.578125 61.73828125 C-10.32858331 58.60054577 -11 57.25119369 -11 53 C-10.34 53 -9.68 53 -9 53 C-9 51.68 -9 50.36 -9 49 C-9.66 49 -10.32 49 -11 49 C-11 44.05 -11 39.1 -11 34 C-10.34 34 -9.68 34 -9 34 C-9 33.01 -9 32.02 -9 31 C-9.66 31 -10.32 31 -11 31 C-11 26.05 -11 21.1 -11 16 C-10.34 16 -9.68 16 -9 16 C-9 15.01 -9 14.02 -9 13 C-9.66 13 -10.32 13 -11 13 C-11.34751969 10.08083462 -11.53280018 7.86804524 -9.95703125 5.30078125 C-6.60485937 1.24081941 -5.30230011 0 0 0 Z " fill="#0371C0" transform="translate(11,0)"/>
<path d="M0 0 C1.32 0 2.64 0 4 0 C4.06058594 1.28777344 4.12117188 2.57554688 4.18359375 3.90234375 C4.26798247 5.58074159 4.3526313 7.25912636 4.4375 8.9375 C4.47681641 9.78763672 4.51613281 10.63777344 4.55664062 11.51367188 C4.59853516 12.32255859 4.64042969 13.13144531 4.68359375 13.96484375 C4.72025146 14.7137085 4.75690918 15.46257324 4.79467773 16.23413086 C4.81771063 18.02461326 4.81771063 18.02461326 6 19 C8.5 19.16666667 8.5 19.16666667 11 19 C12.51421001 17.48578999 12.21309856 16.07527232 12.31640625 13.96484375 C12.35451416 13.23644287 12.39262207 12.50804199 12.43188477 11.75756836 C12.47498779 10.8269458 12.51809082 9.89632324 12.5625 8.9375 C12.706875 5.988125 12.85125 3.03875 13 0 C18.94 0 24.88 0 31 0 C31 1.32 31 2.64 31 4 C29.35 4 27.7 4 26 4 C26 9.28 26 14.56 26 20 C27.65 20 29.3 20 31 20 C31 21.32 31 22.64 31 24 C26.05 24 21.1 24 16 24 C15.67 23.34 15.34 22.68 15 22 C14.01 22.66 13.02 23.32 12 24 C6.30530973 24.63274336 6.30530973 24.63274336 4 24 C1.47514934 21.84087814 0.16401422 20.14427635 -0.31420898 16.80786133 C-0.39372684 14.25592241 -0.34892558 11.73863846 -0.25 9.1875 C-0.23195313 8.30384766 -0.21390625 7.42019531 -0.1953125 6.50976562 C-0.14838513 4.33937457 -0.07664731 2.16954481 0 0 Z " fill="#F3F8FC" transform="translate(17,34)"/>
<path d="M0 0 C1.65 0 3.3 0 5 0 C5 6.6 5 13.2 5 20 C8.96 19.505 8.96 19.505 13 19 C14.98 12.73 16.96 6.46 19 0 C21.31 0 23.62 0 26 0 C27.00906461 3.24725579 28.00565122 6.49821074 29 9.75 C29.28617188 10.67039062 29.57234375 11.59078125 29.8671875 12.5390625 C30.13789062 13.42851562 30.40859375 14.31796875 30.6875 15.234375 C30.93886719 16.05131836 31.19023438 16.86826172 31.44921875 17.70996094 C32 20 32 20 32 24 C30.35 24 28.7 24 27 24 C26.505 21.525 26.505 21.525 26 19 C22.04 19.495 22.04 19.495 18 20 C17.67 21.32 17.34 22.64 17 24 C11.39 24 5.78 24 0 24 C0 16.08 0 8.16 0 0 Z " fill="#E6F1F9" transform="translate(25,8)"/>
<path d="M0 0 C4.62 0 9.24 0 14 0 C14 1.32 14 2.64 14 4 C11.03 4 8.06 4 5 4 C5 5.98 5 7.96 5 10 C7.97 10 10.94 10 14 10 C14 11.32 14 12.64 14 14 C11.03 14 8.06 14 5 14 C5 17.3 5 20.6 5 24 C3.35 24 1.7 24 0 24 C0 16.08 0 8.16 0 0 Z " fill="#E5F0F8" transform="translate(10,8)"/>
<path d="M0 0 C1.65 0 3.3 0 5 0 C5 5.28 5 10.56 5 16 C3.35 16 1.7 16 0 16 C0 10.72 0 5.44 0 0 Z " fill="#1B7FC6" transform="translate(34,38)"/>
<path d="M0 0 C0 1.65 0 3.3 0 5 C-0.928125 5.3403125 -0.928125 5.3403125 -1.875 5.6875 C-4.24389129 6.84804335 -4.24389129 6.84804335 -4.9375 9.5625 C-5.288125 10.366875 -5.63875 11.17125 -6 12 C-8.625 12.8125 -8.625 12.8125 -11 13 C-11.34751969 10.08083462 -11.53280018 7.86804524 -9.95703125 5.30078125 C-6.60485937 1.24081941 -5.30230011 0 0 0 Z " fill="#0C0F12" transform="translate(11,0)"/>
<path d="M0 0 C4.95 0 9.9 0 15 0 C15 1.65 15 3.3 15 5 C10.05 5 5.1 5 0 5 C0 3.35 0 1.7 0 0 Z " fill="#020F18" transform="translate(34,59)"/>
<path d="M0 0 C1.65 0 3.3 0 5 0 C4.76291095 6.04577083 4.76291095 6.04577083 2.73828125 8.578125 C-0.39945423 11.32858331 -1.74880631 12 -6 12 C-6 10.35 -6 8.7 -6 7 C-5.071875 6.6596875 -5.071875 6.6596875 -4.125 6.3125 C-1.38589791 4.62070165 -0.94975528 3.00755839 0 0 Z " fill="#0B0E10" transform="translate(59,52)"/>
<path d="M0 0 C1.65 0 3.3 0 5 0 C5.226875 0.61875 5.45375 1.2375 5.6875 1.875 C7.37929835 4.61410209 8.99244161 5.05024472 12 6 C12 7.65 12 9.3 12 11 C5.95422917 10.76291095 5.95422917 10.76291095 3.421875 8.73828125 C0.67141669 5.60054577 0 4.25119369 0 0 Z " fill="#0B0E10" transform="translate(0,53)"/>
<path d="M0 0 C1.65 0 3.3 0 5 0 C5 4.95 5 9.9 5 15 C3.35 15 1.7 15 0 15 C0 10.05 0 5.1 0 0 Z " fill="#010E17" transform="translate(0,34)"/>
<path d="M0 0 C6.04577083 0.23708905 6.04577083 0.23708905 8.578125 2.26171875 C11.32858331 5.39945423 12 6.74880631 12 11 C10.35 11 8.7 11 7 11 C6.6596875 10.071875 6.6596875 10.071875 6.3125 9.125 C4.62070165 6.38589791 3.00755839 5.94975528 0 5 C0 3.35 0 1.7 0 0 Z " fill="#0B0E10" transform="translate(52,0)"/>
<path d="M0 0 C4.95 0 9.9 0 15 0 C15 1.65 15 3.3 15 5 C10.05 5 5.1 5 0 5 C0 3.35 0 1.7 0 0 Z " fill="#010E17" transform="translate(33,0)"/>
<path d="M0 0 C4.62 0 9.24 0 14 0 C14.33 1.65 14.66 3.3 15 5 C10.05 5 5.1 5 0 5 C0 3.35 0 1.7 0 0 Z " fill="#020B12" transform="translate(16,59)"/>
<path d="M0 0 C0 4.95 0 9.9 0 15 C-1.65 15 -3.3 15 -5 15 C-5 10.38 -5 5.76 -5 1 C-2 0 -2 0 0 0 Z " fill="#010C13" transform="translate(64,33)"/>
<path d="M0 0 C1.65 0 3.3 0 5 0 C5 4.95 5 9.9 5 15 C3.35 14.67 1.7 14.34 0 14 C0 9.38 0 4.76 0 0 Z " fill="#020C12" transform="translate(59,15)"/>
<path d="M0 0 C4.95 0 9.9 0 15 0 C14.67 1.65 14.34 3.3 14 5 C9.38 5 4.76 5 0 5 C0 3.35 0 1.7 0 0 Z " fill="#000910" transform="translate(15,0)"/>
<path d="M0 0 C1.65 0 3.3 0 5 0 C5 4.62 5 9.24 5 14 C3.35 14 1.7 14 0 14 C0 9.38 0 4.76 0 0 Z " fill="#000910" transform="translate(0,16)"/>
<path d="M0 0 C1.88391785 3.26545761 2.49287967 6.28111761 3 10 C1.35 10 -0.3 10 -2 10 C-1.85950482 8.52031676 -1.71245174 7.04125484 -1.5625 5.5625 C-1.48128906 4.73878906 -1.40007813 3.91507813 -1.31640625 3.06640625 C-1 1 -1 1 0 0 Z " fill="#1C80C7" transform="translate(47,13)"/>
</svg>
