<?xml version="1.0" encoding="UTF-8"?>
<svg version="1.1" xmlns="http://www.w3.org/2000/svg" width="128px" height="128px">
<path d="M0 0 C1.9810664 0.0104006 3.96215984 0.01645272 5.94325256 0.01841736 C10.05113795 0.0336303 14.1563167 0.08452088 18.26342773 0.1652832 C23.52603467 0.2681291 28.78641368 0.30382432 34.04993343 0.31638432 C38.12071263 0.32910677 42.19103563 0.36400954 46.26159859 0.40701103 C48.20364243 0.42724784 50.14573192 0.44351488 52.08784294 0.45570564 C54.78715983 0.47847226 57.48459108 0.52808264 60.18334961 0.58618164 C60.98068512 0.58908203 61.77802063 0.59198242 62.59951782 0.5949707 C66.10915646 0.69709052 68.22030233 0.94183145 71.09913635 3.02464294 C73.28348612 6.21723627 73.03026586 9.24944048 72.84765625 12.96484375 C72.82960938 13.66222656 72.8115625 14.35960937 72.79296875 15.078125 C72.74604179 16.79095914 72.6743023 18.50308199 72.59765625 20.21484375 C75.56765625 20.21484375 78.53765625 20.21484375 81.59765625 20.21484375 C81.59765625 56.18484375 81.59765625 92.15484375 81.59765625 129.21484375 C64.02515625 129.29734375 46.45265625 129.37984375 28.34765625 129.46484375 C22.79791992 129.50125977 17.24818359 129.53767578 11.53027344 129.57519531 C4.75634766 129.59326172 4.75634766 129.59326172 1.58575439 129.59661865 C-0.62993582 129.60276334 -2.84561261 129.61683657 -5.06121826 129.637146 C-8.4163743 129.66636523 -11.77071263 129.67046989 -15.12597656 129.66894531 C-16.11399891 129.68333775 -17.10202126 129.69773018 -18.11998367 129.71255875 C-24.75453658 129.67211762 -24.75453658 129.67211762 -28.01623535 127.36975098 C-29.90712014 124.43009539 -29.85860884 122.39689373 -29.79296875 118.91796875 C-29.78007812 117.71269531 -29.7671875 116.50742188 -29.75390625 115.265625 C-29.72039063 114.01136719 -29.686875 112.75710937 -29.65234375 111.46484375 C-29.63429688 110.19511719 -29.61625 108.92539063 -29.59765625 107.6171875 C-29.55051528 104.48231298 -29.48472039 101.34895815 -29.40234375 98.21484375 C-30.02882813 98.57578125 -30.6553125 98.93671875 -31.30078125 99.30859375 C-32.52667969 100.0046875 -32.52667969 100.0046875 -33.77734375 100.71484375 C-34.58945312 101.17890625 -35.4015625 101.64296875 -36.23828125 102.12109375 C-38.40234375 103.21484375 -38.40234375 103.21484375 -40.40234375 103.21484375 C-40.84381646 91.54144964 -41.18075092 79.87005726 -41.38677502 68.18999767 C-41.48570077 62.76501166 -41.6196414 57.34575743 -41.83569336 51.92407227 C-42.04316559 46.68450318 -42.15592167 41.45041664 -42.20501137 36.20705605 C-42.23995209 34.21405932 -42.30821009 32.22134316 -42.41121483 30.23070335 C-43.14171593 15.51927585 -43.14171593 15.51927585 -38.79164314 10.27189827 C-27.65944747 0.45128644 -14.12368187 -0.34935002 0 0 Z " fill="#FE6B01" transform="translate(43.40234375,-1.21484375)"/>
<path d="M0 0 C2.97 0 5.94 0 9 0 C9 35.97 9 71.94 9 109 C-8.5725 109.0825 -26.145 109.165 -44.25 109.25 C-49.79973633 109.28641602 -55.34947266 109.32283203 -61.06738281 109.36035156 C-67.84130859 109.37841797 -67.84130859 109.37841797 -71.01190186 109.3817749 C-73.22759207 109.38791959 -75.44326886 109.40199282 -77.65887451 109.42230225 C-81.01403055 109.45152148 -84.36836888 109.45562614 -87.72363281 109.45410156 C-88.71165516 109.468494 -89.69967751 109.48288643 -90.71763992 109.497715 C-97.35186775 109.45727585 -97.35186775 109.45727585 -100.60595703 107.16142273 C-103.40712576 102.81829278 -102.74365858 97.59860013 -102.74121094 92.58276367 C-102.74997034 90.56931653 -102.82260053 88.56463004 -102.8984375 86.55273438 C-102.90617187 85.27849609 -102.91390625 84.00425781 -102.921875 82.69140625 C-102.93831055 81.52810791 -102.95474609 80.36480957 -102.97167969 79.16625977 C-101.6981557 75.01642747 -99.95888896 74.18026596 -96.32869339 72.03997135 C-92.41930252 70.2940762 -88.77928362 70.34205687 -84.5546875 70.43237305 C-83.64643723 70.43164291 -82.73818695 70.43091278 -81.80241394 70.43016052 C-78.82598343 70.43362012 -75.85115418 70.47240367 -72.875 70.51171875 C-70.8013596 70.52105267 -68.72770813 70.52816605 -66.65405273 70.53315735 C-61.21552702 70.5521814 -55.77767671 70.60124289 -50.3394165 70.65667725 C-44.78236017 70.70796878 -39.22519394 70.73069253 -33.66796875 70.75585938 C-22.77835028 70.80936586 -11.88923146 70.89462312 -1 71 C-1.00222061 70.12525528 -1.00444122 69.25051056 -1.00672913 68.34925842 C-1.02672978 60.12324654 -1.04197298 51.89724277 -1.05181217 43.6712122 C-1.05704056 39.44168629 -1.0641374 35.2121804 -1.07543945 30.98266602 C-1.08626991 26.90431457 -1.09227717 22.82598243 -1.09487724 18.74761772 C-1.09673121 17.18822361 -1.10035127 15.6288306 -1.10573006 14.06944466 C-1.11294262 11.89270838 -1.11399085 9.71605286 -1.11352539 7.53930664 C-1.115746 6.29798477 -1.11796661 5.0566629 -1.12025452 3.77772522 C-1 1 -1 1 0 0 Z " fill="#943D01" transform="translate(116,19)"/>
<path d="M0 0 C0.16217807 11.64797905 0.28656319 23.29568964 0.3626852 34.94456768 C0.39922015 40.35366881 0.44877574 45.76199767 0.52807617 51.1706543 C0.60412596 56.39025777 0.64598831 61.60911845 0.6641407 66.82923317 C0.67707664 68.82084665 0.70233845 70.81241937 0.7401104 72.80371666 C0.79092619 75.59358967 0.79792418 78.38039308 0.79467773 81.1706543 C0.81984467 81.99424438 0.8450116 82.81783447 0.87094116 83.66638184 C0.8020293 89.13876299 0.8020293 89.13876299 -1.54148674 91.65528297 C-6.05167339 95 -6.05167339 95 -9 95 C-9 95.66 -9 96.32 -9 97 C-10.45537568 97.83848804 -11.91440373 98.67063934 -13.375 99.5 C-14.18710938 99.9640625 -14.99921875 100.428125 -15.8359375 100.90625 C-18 102 -18 102 -20 102 C-20.44147271 90.32660589 -20.77840717 78.65521351 -20.98443127 66.97515392 C-21.08335702 61.55016791 -21.21729765 56.13091368 -21.43334961 50.70922852 C-21.64082184 45.46965943 -21.75357792 40.23557289 -21.80266762 34.9922123 C-21.83760834 32.99921557 -21.90586634 31.00649941 -22.00887108 29.0158596 C-22.64146688 16.27612898 -22.64146688 16.27612898 -20 11 C-15.65704943 6.60538658 -6.50454889 0 0 0 Z " fill="#FE9548" transform="translate(23,0)"/>
<path d="M0 0 C10.56 0 21.12 0 32 0 C32 2.97 32 5.94 32 9 C25.4 9 18.8 9 12 9 C12 12.96 12 16.92 12 21 C17.61 21 23.22 21 29 21 C29 23.97 29 26.94 29 30 C23.39 30 17.78 30 12 30 C12 36.6 12 43.2 12 50 C8.04 50 4.08 50 0 50 C0 33.5 0 17 0 0 Z " fill="#FFFBF8" transform="translate(56,20)"/>
</svg>
