<?xml version="1.0" encoding="UTF-8"?>
<svg version="1.1" xmlns="http://www.w3.org/2000/svg" width="443" height="442">
<path d="M0 0 C3.30652692 -0.00434054 6.6116795 -0.04067226 9.91796875 -0.07861328 C28.78437262 -0.17894593 47.37859949 1.92385015 65.47265625 7.49560547 C66.44066162 7.78636963 67.40866699 8.07713379 68.40600586 8.37670898 C104.01184659 19.45389049 134.66482658 38.69311296 161.47265625 64.37060547 C162.59800781 65.43408203 162.59800781 65.43408203 163.74609375 66.51904297 C169.14207845 71.74440365 173.85646238 77.45260003 178.47265625 83.37060547 C178.89949707 83.91571777 179.32633789 84.46083008 179.76611328 85.02246094 C209.94996965 123.88072721 225.95681102 171.61197049 225.84765625 220.68310547 C225.84684052 222.06665222 225.84684052 222.06665222 225.8460083 223.47814941 C225.80470698 238.76095927 224.86951551 253.4156353 221.47265625 268.37060547 C221.25834961 269.31693848 221.04404297 270.26327148 220.82324219 271.23828125 C211.13514798 312.46556424 190.51304555 347.86676348 161.47265625 378.37060547 C160.44591797 379.45921875 160.44591797 379.45921875 159.3984375 380.56982422 C154.14752844 385.99114818 148.41993596 390.73323293 142.47265625 395.37060547 C141.93286133 395.79212891 141.39306641 396.21365234 140.83691406 396.64794922 C111.99751071 418.97736663 79.22876495 433.36376026 43.47265625 440.37060547 C42.4863623 440.56638184 41.50006836 440.7621582 40.48388672 440.96386719 C29.69526631 442.80550621 18.8622693 442.74280698 7.9453125 442.74121094 C4.63878558 442.74555148 1.333633 442.78188319 -1.97265625 442.81982422 C-20.83906012 442.92015687 -39.43328699 440.81736079 -57.52734375 435.24560547 C-58.97935181 434.80945923 -58.97935181 434.80945923 -60.46069336 434.36450195 C-96.06653409 423.28732045 -126.71951408 404.04809797 -153.52734375 378.37060547 C-154.27757812 377.66162109 -155.0278125 376.95263672 -155.80078125 376.22216797 C-161.19676595 370.99680729 -165.91114988 365.2886109 -170.52734375 359.37060547 C-171.16760498 358.55293701 -171.16760498 358.55293701 -171.82080078 357.71875 C-202.00465715 318.86048372 -218.01149852 271.12924045 -217.90234375 222.05810547 C-217.90179993 221.13574097 -217.9012561 220.21337646 -217.9006958 219.26306152 C-217.85939448 203.98025167 -216.92420301 189.32557564 -213.52734375 174.37060547 C-213.31303711 173.42427246 -213.09873047 172.47793945 -212.87792969 171.50292969 C-203.18983548 130.2756467 -182.56773305 94.87444746 -153.52734375 64.37060547 C-152.84285156 63.64486328 -152.15835938 62.91912109 -151.453125 62.17138672 C-146.20221594 56.75006276 -140.47462346 52.007978 -134.52734375 47.37060547 C-133.98754883 46.94908203 -133.44775391 46.52755859 -132.89160156 46.09326172 C-104.05219821 23.7638443 -71.28345245 9.37745068 -35.52734375 2.37060547 C-34.5410498 2.1748291 -33.55475586 1.97905273 -32.53857422 1.77734375 C-21.74995381 -0.06429527 -10.9169568 -0.00159605 0 0 Z " fill="#FDFDFD" transform="translate(217.52734375,-0.37060546875)"/>
<path d="M0 0 C2.07784633 0.0031593 4.15426197 -0.02038863 6.23193359 -0.0456543 C14.89894477 -0.08589154 22.83602896 0.97570924 31.21240234 3.31567383 C32.07647705 3.53860107 32.94055176 3.76152832 33.83081055 3.99121094 C59.69686085 10.76352832 83.50108961 28.3223049 97.46240234 51.12817383 C103.53397703 61.76853796 103.53397703 61.76853796 102.21240234 67.31567383 C98.1861302 77.40277052 92.49827097 86.48870937 86.21240234 95.31567383 C85.22240234 94.98567383 84.23240234 94.65567383 83.21240234 94.31567383 C81.6720226 90.36426493 80.49226264 86.46069362 79.48583984 82.34301758 C73.16333131 57.5552388 60.01549472 36.95118681 38.39990234 23.06567383 C22.74233656 14.2364075 6.45028787 10.76372523 -11.35913086 10.92456055 C-13.48501895 10.94074938 -15.60902939 10.92454397 -17.73486328 10.90551758 C-29.2493722 10.88559426 -39.62777589 12.63272844 -49.91259766 18.00317383 C-50.5892749 18.34985107 -51.26595215 18.69652832 -51.96313477 19.05371094 C-57.82167481 22.1510166 -62.88474057 25.85106095 -67.78759766 30.31567383 C-68.40763672 30.83258789 -69.02767578 31.34950195 -69.66650391 31.88208008 C-79.46642474 40.62966042 -84.45812458 53.94945592 -87.78759766 66.31567383 C-88.04798828 67.19497559 -88.30837891 68.07427734 -88.57666016 68.98022461 C-91.04613479 78.16614357 -91.24771363 87.01140935 -91.17871094 96.45239258 C-91.16270672 99.04798634 -91.17859678 101.64200369 -91.19775391 104.23754883 C-91.23495605 134.51991716 -81.76078802 164.21235661 -61.78759766 187.31567383 C-61.17916016 188.03239258 -60.57072266 188.74911133 -59.94384766 189.48754883 C-52.48930001 197.59289032 -42.93693078 203.3132984 -33.78759766 209.31567383 C-34.40678844 210.77648315 -35.03316457 212.23424837 -35.66259766 213.69067383 C-36.01064453 214.5027832 -36.35869141 215.31489258 -36.71728516 216.15161133 C-37.78759766 218.31567383 -37.78759766 218.31567383 -39.78759766 220.31567383 C-60.0512203 219.67238422 -78.08503783 204.75668477 -91.60400391 190.80395508 C-99.89494367 181.35614 -105.54543328 170.64795341 -110.78759766 159.31567383 C-111.40441406 158.0259668 -111.40441406 158.0259668 -112.03369141 156.71020508 C-117.84265192 143.57788579 -119.463589 129.23132063 -119.30908203 115.02856445 C-119.28752825 112.68312106 -119.30909636 110.34071667 -119.33447266 107.99536133 C-119.38624834 79.15856714 -107.1914048 54.16716733 -87.35791016 33.82348633 C-70.66627785 18.00748063 -47.11612288 6.96969174 -24.78759766 2.31567383 C-24.04268066 2.14575928 -23.29776367 1.97584473 -22.53027344 1.80078125 C-15.03067011 0.23189389 -7.6364656 -0.02419439 0 0 Z " fill="#42403F" transform="translate(145.78759765625,67.684326171875)"/>
<path d="M0 0 C2.45919541 3.68879312 2.60376073 6.9574079 3 11.25 C3.7250175 18.94324127 4.83363101 25.71678073 9.0625 32.375 C9.58972656 33.22835937 10.11695313 34.08171875 10.66015625 34.9609375 C16.69753221 42.80247088 23.64451702 48.51875781 32.0625 53.625 C33.47619873 54.50551025 33.47619873 54.50551025 34.91845703 55.40380859 C37.93800239 57.28189726 40.96758534 59.14277219 44 61 C67.98271717 75.7167532 67.98271717 75.7167532 77.0625 82.5 C77.67464355 82.95584473 78.28678711 83.41168945 78.91748047 83.88134766 C90.68565583 92.91273805 99.46421203 104.14421933 102 119 C103.63913332 136.48883981 100.37178509 153.70605506 89.25 167.8125 C81.67941075 175.85137312 72.08530208 180.02252433 62 184 C61.1646875 184.36222656 60.329375 184.72445312 59.46875 185.09765625 C37.0511715 193.29142307 7.62764567 188.87257581 -13.55078125 179.62109375 C-17 178 -17 178 -20 176 C-21.66470646 171.3330173 -22.38033459 166.79582353 -22.8515625 161.87890625 C-22.91532074 161.21648422 -22.97907898 160.55406219 -23.04476929 159.87156677 C-23.17734873 158.47433844 -23.30658429 157.07678912 -23.43261719 155.67895508 C-23.6217743 153.59798674 -23.82570582 151.51885861 -24.03125 149.43945312 C-24.93302758 139.93788926 -25.15806654 130.54067273 -25 121 C-23.07080078 121.31689453 -23.07080078 121.31689453 -21 122 C-20.09912363 124.32985267 -19.46485722 126.46451482 -18.875 128.875 C-13.82753274 146.91372576 -3.3642583 166.00465663 13 176 C26.98767347 182.13682392 40.2213445 184.32168396 54.921875 179.26171875 C64.6715878 175.26532632 71.94772331 170.10578523 76.375 160.375 C80.850128 146.85599409 79.15970048 130.02864733 72.875 117.4375 C65.97411801 105.85313654 55.23734335 97.12447797 44 90 C42.72588257 89.1807605 42.72588257 89.1807605 41.42602539 88.3449707 C36.55696247 85.22600897 31.65709371 82.15788376 26.74609375 79.10546875 C25.17118164 78.12610352 25.17118164 78.12610352 23.56445312 77.12695312 C21.54137406 75.87216392 19.51550589 74.6218557 17.48632812 73.37695312 C10.75514389 69.21527344 4.34479341 64.72738013 -2 60 C-2.76634766 59.44223877 -3.53269531 58.88447754 -4.32226562 58.30981445 C-11.67960624 52.83373913 -16.33956971 43.56575137 -18.00390625 34.640625 C-18.4689459 28.99670751 -15.96578171 25.24469348 -13 20.625 C-12.49686279 19.80153076 -11.99372559 18.97806152 -11.4753418 18.12963867 C-10.00649073 15.73779176 -8.50790793 13.3673587 -7 11 C-6.23465114 9.77538017 -5.47020568 8.55019485 -4.70703125 7.32421875 C-3.16102331 4.86654428 -1.59665173 2.42494887 0 0 Z " fill="#42403F" transform="translate(285,189)"/>
<path d="M0 0 C1.98 0.99 3.96 1.98 6 3 C4.4854415 7.54367549 1.92939078 11.0437218 -0.9375 14.8125 C-4.83806772 20.03444523 -8.6413782 25.30164934 -12.3125 30.6875 C-21.22425681 43.74283738 -30.33593523 56.65912082 -39.46069336 69.56616211 C-43.32331106 75.03282935 -47.16428765 80.51442885 -51 86 C-55.802487 92.86818555 -60.622866 99.72325165 -65.4609375 106.56640625 C-69.3233647 112.03306909 -73.16435255 117.51452166 -77 123 C-81.31906804 129.17683312 -85.64898265 135.34562915 -90 141.5 C-96.10083589 150.13082265 -102.16098551 158.78989108 -108.21777344 167.45166016 C-111.72506556 172.46660744 -115.23536713 177.47944858 -118.74511719 182.49267578 C-121.6878564 186.69623647 -124.62984094 190.90032141 -127.5703125 195.10546875 C-133.51542691 203.60593935 -139.47319464 212.0969828 -145.46142578 220.56713867 C-149.32373472 226.03352596 -153.16452068 231.51476211 -157 237 C-161.31906815 243.17683327 -165.6490074 249.34561154 -170 255.5 C-174.41038562 261.73984053 -178.80476236 267.9907066 -183.1875 274.25 C-183.78344971 275.10102295 -184.37939941 275.9520459 -184.9934082 276.82885742 C-188.24479967 281.47660743 -191.47530076 286.13760289 -194.6875 290.8125 C-199.63864335 297.98698697 -204.81537514 304.99348827 -210 312 C-211.65 311.34 -213.3 310.68 -215 310 C-211.0333058 296.99074698 -200.92594497 285.86016487 -193 275 C-186.53545238 266.12605516 -180.0965833 257.26729483 -174.06640625 248.08984375 C-170.5683942 242.85935693 -166.90431424 237.7464019 -163.265625 232.61328125 C-159.86657699 227.8178287 -156.493644 223.0043417 -153.125 218.1875 C-152.54169922 217.35371826 -151.95839844 216.51993652 -151.35742188 215.66088867 C-149.57132281 213.10746302 -147.78559845 210.55377575 -146 208 C-138.86446619 197.79470818 -131.72189219 187.59489545 -124.53417969 177.42626953 C-118.32605403 168.63859596 -112.16534054 159.81771441 -106 151 C-98.8659812 140.79687497 -91.72563086 130.59871641 -84.53857422 120.43286133 C-80.67626528 114.96647404 -76.83547932 109.48523789 -73 104 C-68.68093196 97.82316688 -64.35101735 91.65437085 -60 85.5 C-53.30083886 76.02272955 -46.65043366 66.51149809 -40 57 C-37.62542662 53.60386806 -35.25049599 50.20798668 -32.875 46.8125 C-32.29468018 45.98290771 -31.71436035 45.15331543 -31.11645508 44.29858398 C-27.36398747 38.9379913 -23.5929878 33.59085534 -19.8125 28.25 C-15.33919319 21.93027077 -10.92870042 15.56984517 -6.5637207 9.17480469 C-4.4380129 6.06511485 -2.29578657 2.98828612 0 0 Z " fill="#4B4948" transform="translate(339,61)"/>
<path d="M0 0 C1.0292157 0.00081573 1.0292157 0.00081573 2.07922363 0.00164795 C16.45968343 0.05405182 35.10360195 0.41610195 46.0625 11.375 C49.02096327 25.82180238 48.26332193 40.71808855 48.0625 55.375 C46.16503906 55.13964844 46.16503906 55.13964844 44.0625 54.375 C43.09277344 52.54003906 43.09277344 52.54003906 42.421875 50.140625 C42.16027588 49.26229004 41.89867676 48.38395508 41.62915039 47.47900391 C41.35965576 46.53718262 41.09016113 45.59536133 40.8125 44.625 C36.66416676 31.25952884 31.17439543 18.81548459 18.2890625 11.8828125 C10.27570974 8.08022955 3.66028954 7.17452947 -5.125 7.125 C-6.02025391 7.104375 -6.91550781 7.08375 -7.83789062 7.0625 C-13.59690192 7.02923495 -18.39174934 7.83760674 -23.8371582 9.72753906 C-25.9375 10.375 -25.9375 10.375 -28.9375 10.375 C-26.1875 4.625 -26.1875 4.625 -23.9375 2.375 C-16.03604599 0.01710579 -8.19560425 -0.0243142 0 0 Z " fill="#494746" transform="translate(329.9375,153.625)"/>
</svg>
